<svg width="22" height="26" viewBox="0 0 22 26" fill="none" xmlns="http://www.w3.org/2000/svg">
<path d="M20.2852 0H1.71373C0.926013 0 0.285156 0.640857 0.285156 1.42857V24.5714C0.285156 25.3591 0.926013 26 1.71373 26H20.2852C21.0729 26 21.7137 25.3591 21.7137 24.5714V1.42857C21.7137 0.640857 21.0729 0 20.2852 0ZM6.78516 23.2143C6.78516 23.5687 6.4968 23.8571 6.1423 23.8571H3.85658C3.50208 23.8571 3.21373 23.5687 3.21373 23.2143V20.8571C3.21373 20.5027 3.50208 20.2143 3.85658 20.2143H6.1423C6.4968 20.2143 6.78516 20.5027 6.78516 20.8571V23.2143ZM6.78516 17.7857C6.78516 18.1401 6.4968 18.4286 6.1423 18.4286H3.85658C3.50208 18.4286 3.21373 18.1401 3.21373 17.7857V15.4286C3.21373 15.0741 3.50208 14.7857 3.85658 14.7857H6.1423C6.4968 14.7857 6.78516 15.0741 6.78516 15.4286V17.7857ZM6.78516 12.3571C6.78516 12.7116 6.4968 13 6.1423 13H3.85658C3.50208 13 3.21373 12.7116 3.21373 12.3571V10C3.21373 9.64557 3.50208 9.35714 3.85658 9.35714H6.1423C6.4968 9.35714 6.78516 9.64557 6.78516 10V12.3571ZM12.928 23.2143C12.928 23.5687 12.6397 23.8571 12.2852 23.8571H9.99944C9.64494 23.8571 9.35658 23.5687 9.35658 23.2143V20.8571C9.35658 20.5027 9.64494 20.2143 9.99944 20.2143H12.2852C12.6397 20.2143 12.928 20.5027 12.928 20.8571V23.2143ZM12.928 17.7857C12.928 18.1401 12.6397 18.4286 12.2852 18.4286H9.99944C9.64494 18.4286 9.35658 18.1401 9.35658 17.7857V15.4286C9.35658 15.0741 9.64494 14.7857 9.99944 14.7857H12.2852C12.6397 14.7857 12.928 15.0741 12.928 15.4286V17.7857ZM12.928 12.3571C12.928 12.7116 12.6397 13 12.2852 13H9.99944C9.64494 13 9.35658 12.7116 9.35658 12.3571V10C9.35658 9.64557 9.64494 9.35714 9.99944 9.35714H12.2852C12.6397 9.35714 12.928 9.64557 12.928 10V12.3571ZM18.9994 23.2143C18.9994 23.5687 18.7111 23.8571 18.3566 23.8571H16.0709C15.7164 23.8571 15.428 23.5687 15.428 23.2143V15.4286C15.428 15.0741 15.7164 14.7857 16.0709 14.7857H18.3566C18.7111 14.7857 18.9994 15.0741 18.9994 15.4286V23.2143ZM18.9994 12.3571C18.9994 12.7116 18.7111 13 18.3566 13H16.0709C15.7164 13 15.428 12.7116 15.428 12.3571V10C15.428 9.64557 15.7164 9.35714 16.0709 9.35714H18.3566C18.7111 9.35714 18.9994 9.64557 18.9994 10V12.3571ZM19.2852 6.35714C19.2852 6.75164 18.9654 7.07143 18.5709 7.07143H3.49944C3.10494 7.07143 2.78516 6.75164 2.78516 6.35714V3.28571C2.78516 2.89121 3.10494 2.57143 3.49944 2.57143H18.5709C18.9654 2.57143 19.2852 2.89121 19.2852 3.28571V6.35714Z" fill="white"/>
</svg>
