<svg width="24" height="30" viewBox="0 0 24 30" fill="none" xmlns="http://www.w3.org/2000/svg">
<path d="M23.1859 17.5646C22.8422 13.0904 20.7591 10.2867 18.9214 7.81248C17.2197 5.52193 15.75 3.54392 15.75 0.626071C15.75 0.391696 15.6188 0.177477 15.4106 0.0700744C15.2019 -0.0379725 14.951 -0.0202772 14.7612 0.117653C12.0012 2.09261 9.69838 5.42127 8.89395 8.59728C8.33549 10.8084 8.2616 13.2942 8.25123 14.936C5.7024 14.3916 5.12502 10.579 5.11893 10.5374C5.09022 10.3397 4.96939 10.1676 4.79361 10.0736C4.61602 9.98086 4.40725 9.97412 4.22719 10.0632C4.09354 10.1279 0.946523 11.727 0.763418 18.1114C0.750586 18.3238 0.75 18.5368 0.75 18.7498C0.75 24.9524 5.79697 29.9991 12 29.9991C12.0086 29.9996 12.0177 30.0009 12.025 29.9991C12.0275 29.9991 12.0299 29.9991 12.0329 29.9991C18.2207 29.9813 23.25 24.9414 23.25 18.7498C23.25 18.4379 23.1859 17.5646 23.1859 17.5646ZM12 28.7491C9.93211 28.7491 8.25 26.9573 8.25 24.7547C8.25 24.6796 8.24941 24.6039 8.25486 24.5112C8.27988 23.5823 8.45631 22.9482 8.64979 22.5264C9.01236 23.3052 9.66053 24.0211 10.7134 24.0211C11.0589 24.0211 11.3384 23.7415 11.3384 23.3961C11.3384 22.5063 11.3568 21.4798 11.5783 20.5533C11.7755 19.7318 12.2466 18.8578 12.8436 18.1572C13.1091 19.0666 13.6267 19.8026 14.1321 20.5209C14.8553 21.5487 15.603 22.6113 15.7342 24.4233C15.7421 24.5307 15.7501 24.6387 15.7501 24.7547C15.75 26.9572 14.0679 28.7491 12 28.7491Z" fill="#0E0E0E"/>
</svg>
