<svg width="28" height="26" viewBox="0 0 28 26" fill="none" xmlns="http://www.w3.org/2000/svg">
<path d="M3.80678 24.781C3.80678 24.781 3.78191 25.4069 4.39331 25.4069C5.15393 25.4069 11.4513 25.3986 11.4513 25.3986L11.4617 19.6152C11.4617 19.6152 11.3622 18.6618 12.2876 18.6618H15.2161C16.3104 18.6618 16.243 19.6152 16.243 19.6152L16.2306 25.3799C16.2306 25.3799 22.2016 25.3799 23.1394 25.3799C23.9156 25.3799 23.8804 24.6007 23.8804 24.6007V13.9385L14.1436 5.27734L3.80678 13.9385V24.781Z" fill="black"/>
<path d="M0 13.1313C0 13.1313 0.87772 14.749 2.79171 13.1313L14.2301 3.45465L24.9544 13.0712C27.1699 14.6692 28 13.0712 28 13.0712L14.2301 0.597656L0 13.1313Z" fill="black"/>
<path d="M24.6941 3.43359H21.9355L21.9469 6.77867L24.6941 9.10924V3.43359Z" fill="black"/>
</svg>
