<svg width="28" height="26" viewBox="0 0 28 26" fill="none" xmlns="http://www.w3.org/2000/svg">
<path d="M3.80873 24.781C3.80873 24.781 3.78386 25.4069 4.39526 25.4069C5.15588 25.4069 11.4533 25.3986 11.4533 25.3986L11.4637 19.6152C11.4637 19.6152 11.3642 18.6618 12.2896 18.6618H15.2181C16.3124 18.6618 16.245 19.6152 16.245 19.6152L16.2326 25.3799C16.2326 25.3799 22.2036 25.3799 23.1414 25.3799C23.9175 25.3799 23.8823 24.6007 23.8823 24.6007V13.9385L14.1455 5.27734L3.80873 13.9385V24.781Z" fill="#E4E8EB"/>
<path d="M0 13.1313C0 13.1313 0.87772 14.749 2.79171 13.1313L14.2301 3.45465L24.9544 13.0712C27.1699 14.6692 28 13.0712 28 13.0712L14.2301 0.597656L0 13.1313Z" fill="#E4E8EB"/>
<path d="M24.696 3.43359H21.9375L21.9489 6.77867L24.696 9.10924V3.43359Z" fill="#E4E8EB"/>
</svg>
