<svg width="29" height="23" viewBox="0 0 29 23" fill="none" xmlns="http://www.w3.org/2000/svg">
<path d="M7.63703 21.5073C8.48591 22.3561 9.86389 22.3561 10.7128 21.5073L21.2424 10.9776C21.5447 10.6753 21.7773 10.3148 21.9285 9.93106C22.9867 10.2276 24.0158 10.3846 24.9228 10.3788C27.1671 10.3671 27.9114 9.38452 28.1556 8.79728C28.3998 8.21585 28.5742 6.99486 26.9985 5.39012C26.9811 5.37268 26.9636 5.35524 26.9462 5.33779C25.9694 4.361 24.5507 3.45979 22.9402 2.79115C22.6436 2.66905 22.3471 2.55858 22.0564 2.45392V2.43648C22.039 1.14571 20.9982 0.104958 19.7074 0.087515L13.399 0.000301096C12.5617 -0.0113274 11.7593 0.314271 11.1721 0.907326L0.636662 11.437C-0.21222 12.2858 -0.21222 13.6638 0.636662 14.5127L7.63703 21.5073ZM15.7537 3.76794C16.4573 3.06442 17.5969 3.06442 18.3004 3.76794C18.719 4.18657 18.8876 4.76218 18.8062 5.30291C19.4981 5.79131 20.3237 6.24482 21.2075 6.61112C21.5215 6.73903 21.8238 6.85532 22.1145 6.95416L22.0797 4.41914C22.132 4.4424 22.1785 4.45984 22.2308 4.4831C23.6088 5.05871 24.8472 5.83782 25.6438 6.63437C25.6554 6.646 25.6671 6.65763 25.6787 6.66926C26.4345 7.44255 26.5159 7.93677 26.452 8.08794C26.2543 8.55889 24.1321 8.97752 20.911 7.63443C19.9691 7.23906 19.0853 6.75066 18.3702 6.22156C18.3469 6.25063 18.3178 6.2797 18.2946 6.30877C17.591 7.0123 16.4515 7.0123 15.7479 6.30877C15.0502 5.61106 15.0502 4.47147 15.7537 3.76794Z" fill="white"/>
</svg>
