<svg width="28" height="30" viewBox="0 0 28 30" fill="none" xmlns="http://www.w3.org/2000/svg">
<path d="M7.21444 15.0156H1.45584C1.01099 15.0156 0.650391 15.3762 0.650391 15.8211V29.1931C0.650391 29.638 1.01099 29.9986 1.45584 29.9986H7.21444C7.65929 29.9986 8.01989 29.638 8.01989 29.1931V15.8211C8.01989 15.3763 7.65929 15.0156 7.21444 15.0156Z" fill="#0E0E0E"/>
<path d="M16.8804 0H11.1218C10.677 0 10.3164 0.360598 10.3164 0.805445V29.1946C10.3164 29.6392 10.677 30 11.1218 30H16.8804C17.3253 30 17.6859 29.6392 17.6859 29.1946V0.805445C17.6859 0.360598 17.3254 0 16.8804 0Z" fill="#0E0E0E"/>
<path d="M26.5445 9.28125H20.7859C20.3411 9.28125 19.9805 9.64185 19.9805 10.0867V29.1925C19.9805 29.6372 20.3411 29.9979 20.7859 29.9979H26.5445C26.9894 29.9979 27.35 29.6372 27.35 29.1925V10.0867C27.35 9.64185 26.9895 9.28125 26.5445 9.28125Z" fill="#0E0E0E"/>
</svg>
