<svg width="26" height="26" viewBox="0 0 26 26" fill="none" xmlns="http://www.w3.org/2000/svg">
<path d="M5.54208 10.285C6.03842 10.285 6.526 10.2073 6.99574 10.0575L9.78762 12.8475L12.8451 9.79057L10.0546 6.99756C10.5925 5.31657 10.1505 3.45393 8.89677 2.20065C8.00428 1.30789 6.81616 0.816406 5.55464 0.816406C4.84978 0.816406 4.14302 0.976133 3.50888 1.27851C3.4132 1.3241 3.3462 1.41302 3.32826 1.51728C3.31084 1.62154 3.34438 1.72736 3.41883 1.8025L6.35631 4.74067C6.57306 4.95725 6.69266 5.24481 6.69266 5.55005C6.69266 5.85607 6.57289 6.14311 6.35631 6.35969C5.9248 6.79251 5.17036 6.79251 4.73807 6.35857L1.79955 3.42117C1.72424 3.34586 1.61599 3.31284 1.51468 3.33035C1.41016 3.34829 1.3215 3.41528 1.27591 3.51096C0.412882 5.31952 0.782776 7.48532 2.19813 8.89963C3.09114 9.79265 4.27865 10.285 5.54208 10.285Z" fill="white"/>
<path d="M20.4609 15.7193C19.9635 15.7193 19.4751 15.7975 19.005 15.9477L15.917 12.8594L12.8574 15.9184L15.9463 19.0072C15.4095 20.6877 15.8511 22.5498 17.1041 23.8039C17.9968 24.6967 19.185 25.1882 20.4464 25.1882C21.1516 25.1882 21.8583 25.0282 22.4924 24.7259C22.5881 24.6804 22.6551 24.5914 22.673 24.4871C22.691 24.3828 22.6569 24.2769 22.5825 24.2019L19.6451 21.2631C19.4287 21.047 19.3092 20.76 19.309 20.4548C19.309 20.149 19.4285 19.862 19.6456 19.6451C20.0785 19.212 20.8313 19.2122 21.2633 19.6454L24.2012 22.5828C24.2763 22.6576 24.3811 22.6908 24.4864 22.6736C24.5907 22.6554 24.6797 22.5887 24.7252 22.493C25.5882 20.6847 25.2186 18.5191 23.8032 17.1046C22.9105 16.2116 21.7232 15.7193 20.4609 15.7193Z" fill="white"/>
<path d="M19.2036 8.75414C19.2036 8.75414 19.7147 9.20178 20.1361 8.99265C20.6123 8.75302 21.954 10.0757 22.382 10.3852C22.3834 10.3862 22.3864 10.3862 22.3914 10.3887L22.1574 10.6237C21.8483 10.9292 21.8486 11.4281 22.1566 11.7341C22.4648 12.041 22.9603 12.0407 23.2686 11.7341L25.1214 9.88376C25.4275 9.57609 25.4277 9.0781 25.1209 8.77096C24.8151 8.46485 24.3163 8.46485 24.0094 8.77122L23.7009 9.07949C23.4452 8.72736 23.0204 8.1272 23.0743 7.92838C23.3003 7.05764 21.5251 5.00087 21.5251 5.00087C17.1166 0.593174 14.1719 0.693361 12.771 1.17505C12.2087 1.36849 12.313 1.49104 12.8971 1.59391C17.1472 2.33578 17.6744 4.84218 16.9539 5.80921C16.6768 6.18257 17.081 6.63332 17.081 6.63332L17.2329 6.78421L10.0566 13.9592C10.154 14.0178 10.2485 14.0846 10.3319 14.1682L11.5391 15.3743C11.6211 15.4565 11.6881 15.5504 11.7462 15.6476L18.9225 8.47239L19.2036 8.75414Z" fill="white"/>
<path d="M9.84853 14.6517C9.58368 14.3866 9.13292 14.3695 8.84961 14.6155L0.874628 21.7653C0.590015 22.0111 0.574155 22.4294 0.839528 22.6948L3.01174 24.8654C3.27729 25.1308 3.69485 25.116 3.94037 24.8329L11.0923 16.8556C11.3369 16.5726 11.3214 16.1234 11.0558 15.8583L9.84853 14.6517Z" fill="white"/>
</svg>
