<svg width="30" height="30" viewBox="0 0 30 30" fill="none" xmlns="http://www.w3.org/2000/svg">
<path d="M6.3944 11.8667C6.9671 11.8667 7.5297 11.777 8.0717 11.6042L11.2931 14.8234L14.821 11.2962L11.6011 8.07351C12.2218 6.13391 11.7118 3.98471 10.2652 2.53861C9.2354 1.50851 7.8645 0.941406 6.4089 0.941406C5.5956 0.941406 4.7801 1.12571 4.0484 1.47461C3.938 1.52721 3.8607 1.62981 3.84 1.75011C3.8199 1.87041 3.8586 1.99251 3.9445 2.07921L7.3339 5.46941C7.584 5.71931 7.722 6.05111 7.722 6.40331C7.722 6.75641 7.5838 7.08761 7.3339 7.33751C6.836 7.83691 5.9655 7.83691 5.4667 7.33621L2.0761 3.94691C1.9892 3.86001 1.8643 3.82191 1.7474 3.84211C1.6268 3.86281 1.5245 3.94011 1.4719 4.05051C0.476102 6.13731 0.902902 8.63631 2.536 10.2682C3.5664 11.2986 4.9366 11.8667 6.3944 11.8667Z" fill="#0E0E0E"/>
<path d="M23.6072 18.1358C23.0333 18.1358 22.4698 18.2261 21.9274 18.3993L18.3643 14.8359L14.834 18.3656L18.3981 21.9296C17.7787 23.8686 18.2883 26.0172 19.734 27.4642C20.7641 28.4943 22.135 29.0615 23.5905 29.0615C24.4042 29.0615 25.2196 28.8768 25.9513 28.528C26.0617 28.4755 26.139 28.3728 26.1597 28.2525C26.1804 28.1322 26.1411 28.01 26.0552 27.9234L22.6659 24.5325C22.4163 24.2832 22.2784 23.952 22.2781 23.5998C22.2781 23.247 22.416 22.9158 22.6665 22.6656C23.166 22.1658 24.0346 22.1661 24.5331 22.6659L27.923 26.0552C28.0096 26.1415 28.1305 26.1799 28.2521 26.16C28.3724 26.139 28.4751 26.062 28.5276 25.9516C29.5234 23.8651 29.0969 21.3664 27.4638 19.7342C26.4337 18.7039 25.0638 18.1358 23.6072 18.1358Z" fill="#0E0E0E"/>
<path d="M22.1577 10.0994C22.1577 10.0994 22.7474 10.6159 23.2336 10.3746C23.7831 10.0981 25.3312 11.6243 25.8251 11.9814C25.8267 11.9826 25.8301 11.9826 25.8359 11.9854L25.5659 12.2566C25.2093 12.6091 25.2096 13.1847 25.565 13.5378C25.9206 13.8919 26.4924 13.8916 26.8481 13.5378L28.9859 11.4028C29.3391 11.0478 29.3394 10.4732 28.9853 10.1188C28.6325 9.76563 28.057 9.76563 27.7029 10.1191L27.3469 10.4748C27.0519 10.0685 26.5617 9.37603 26.6239 9.14663C26.8846 8.14193 24.8364 5.76873 24.8364 5.76873C19.7496 0.68293 16.3519 0.79853 14.7355 1.35433C14.0867 1.57753 14.207 1.71893 14.8809 1.83763C19.7849 2.69363 20.3932 5.58563 19.5619 6.70143C19.2422 7.13223 19.7085 7.65233 19.7085 7.65233L19.8838 7.82643L11.6035 16.1052C11.7158 16.1729 11.8249 16.2499 11.9211 16.3464L13.314 17.738C13.4086 17.8329 13.4859 17.9412 13.553 18.0534L21.8334 9.77433L22.1577 10.0994Z" fill="#0E0E0E"/>
<path d="M11.3632 16.9028C11.0576 16.5969 10.5375 16.5772 10.2106 16.8611L1.00874 25.1108C0.680336 25.3944 0.662036 25.8771 0.968236 26.1833L3.47464 28.6879C3.78104 28.9941 4.26284 28.977 4.54614 28.6504L12.7983 19.4458C13.0806 19.1192 13.0627 18.6009 12.7562 18.2951L11.3632 16.9028Z" fill="#0E0E0E"/>
</svg>
