<svg width="33" height="33" viewBox="0 0 33 33" fill="none" xmlns="http://www.w3.org/2000/svg">
<g clip-path="url(#clip0)">
<path d="M33 5.54883H13.8604V17.9549H33V5.54883Z" fill="white"/>
<path d="M12.4928 9.96018C12.4928 9.45464 12.0831 9.04492 11.5775 9.04492H2.17075C1.71447 9.04492 1.32784 9.3811 1.26433 9.83292L0.415447 15.8799C0.409557 15.922 0.406612 15.9645 0.406612 16.0072V19.1393H0V22.7781H1.96056C1.8723 23.0919 1.82399 23.4225 1.82399 23.7641C1.82399 25.7752 3.46007 27.4112 5.471 27.4112C7.48202 27.4112 9.11802 25.7751 9.11802 23.7641C9.11802 23.4225 9.06979 23.092 8.98145 22.7781H22.5822C22.4866 23.1038 22.4344 23.4478 22.4344 23.8039C22.4344 25.815 24.0704 27.451 26.0814 27.451C28.0924 27.451 29.7285 25.8149 29.7285 23.8039C29.7285 23.4478 29.6763 23.1038 29.5806 22.7781H32.9999V19.1393H12.4928V9.96018ZM5.471 25.5409C4.49128 25.5409 3.69429 24.7438 3.69429 23.7641C3.69429 22.7844 4.49136 21.9874 5.471 21.9874C6.45073 21.9874 7.24771 22.7845 7.24771 23.7641C7.24771 24.7438 6.45073 25.5409 5.471 25.5409ZM10.6623 12.7229L7.82815 15.557H2.30931L2.96654 10.8754H10.6623V12.7229ZM26.0814 22.0271C27.0612 22.0271 27.8582 22.8242 27.8582 23.8039C27.8582 24.7836 27.0611 25.5806 26.0814 25.5806C25.1017 25.5806 24.3047 24.7835 24.3047 23.8039C24.3047 22.8242 25.1017 22.0271 26.0814 22.0271Z" fill="white"/>
</g>
<defs>
    <clipPath id="clip0">
        <rect width="33" height="33" fill="white"/>
    </clipPath>
</defs>
</svg>
