<svg width="30" height="30" viewBox="0 0 30 30" fill="none" xmlns="http://www.w3.org/2000/svg">
<path d="M30 15C30 6.72927 23.2707 0 15 0C6.72927 0 0 6.72927 0 15C0 19.3685 1.87855 23.3062 4.86873 26.0498L4.85455 26.0624L5.34109 26.4725C5.37273 26.4993 5.40709 26.5211 5.43873 26.5473C5.69727 26.7616 5.96509 26.9651 6.23782 27.162C6.32618 27.2258 6.41455 27.2896 6.50455 27.3518C6.79582 27.5525 7.09473 27.7429 7.40018 27.9235C7.46673 27.9627 7.53382 28.0009 7.60091 28.0391C7.93527 28.2295 8.27673 28.4089 8.62636 28.5736C8.652 28.5856 8.67818 28.5965 8.70382 28.6085C9.84327 29.1382 11.0596 29.5271 12.3316 29.7567C12.3649 29.7627 12.3982 29.7687 12.432 29.7747C12.8269 29.8429 13.2262 29.8975 13.6304 29.934C13.6795 29.9384 13.7285 29.9411 13.7782 29.9455C14.1807 29.9787 14.5876 30 15 30C15.4085 30 15.8116 29.9787 16.212 29.9465C16.2627 29.9422 16.3135 29.9395 16.3642 29.9351C16.7651 29.8985 17.1611 29.8456 17.5522 29.7785C17.586 29.7725 17.6204 29.7665 17.6542 29.76C18.9071 29.5353 20.106 29.1551 21.2307 28.6391C21.2722 28.62 21.3142 28.602 21.3556 28.5824C21.6922 28.4242 22.0211 28.2535 22.3435 28.0718C22.4236 28.0265 22.5033 27.9807 22.5829 27.9338C22.8764 27.7609 23.1649 27.5804 23.4453 27.3884C23.5462 27.3196 23.6449 27.2471 23.7447 27.1751C23.9842 27.0027 24.2193 26.8249 24.4478 26.6389C24.4985 26.598 24.5531 26.5625 24.6027 26.5205L25.1018 26.1038L25.0871 26.0913C28.1035 23.3465 30 19.3909 30 15ZM1.09091 15C1.09091 7.33036 7.33036 1.09091 15 1.09091C22.6696 1.09091 28.9091 7.33036 28.9091 15C28.9091 19.1329 27.0955 22.8485 24.2242 25.398C24.0638 25.2873 23.9024 25.188 23.7371 25.1051L19.1187 22.7962C18.7042 22.5889 18.4467 22.1722 18.4467 21.7091V20.0962C18.5536 19.9642 18.6665 19.8147 18.7833 19.6505C19.3811 18.8062 19.8605 17.8669 20.2102 16.8562C20.9013 16.5278 21.3475 15.8395 21.3475 15.0622V13.1285C21.3475 12.6556 21.174 12.1969 20.8636 11.8364V9.29073C20.892 9.00709 20.9924 7.41 19.8365 6.09218C18.8313 4.94455 17.2042 4.36364 15 4.36364C12.7958 4.36364 11.1687 4.94455 10.1635 6.09164C9.00764 7.40945 9.108 9.00764 9.13636 9.29018V11.8358C8.82655 12.1964 8.65255 12.6551 8.65255 13.128V15.0616C8.65255 15.6622 8.922 16.2224 9.38345 16.6004C9.82527 18.3311 10.7345 19.6413 11.0705 20.0853V21.6638C11.0705 22.1089 10.8278 22.518 10.4367 22.7318L6.12382 25.0844C5.98636 25.1591 5.85 25.2464 5.71364 25.344C2.87782 22.7956 1.09091 19.1029 1.09091 15Z" fill="#0E0E0E"/>
</svg>
