<svg width="26" height="26" viewBox="0 0 26 26" fill="none" xmlns="http://www.w3.org/2000/svg">
<path d="M26 13C26 5.83204 20.168 0 13 0C5.83204 0 0 5.83204 0 13C0 16.7861 1.62807 20.1987 4.21956 22.5765L4.20727 22.5874L4.62895 22.9429C4.65636 22.966 4.68615 22.9849 4.71356 23.0076C4.93764 23.1934 5.16975 23.3697 5.40611 23.5404C5.48269 23.5957 5.55927 23.651 5.63727 23.7049C5.88971 23.8789 6.14876 24.0439 6.41349 24.2003C6.47116 24.2344 6.52931 24.2675 6.58745 24.3005C6.87724 24.4655 7.17316 24.6211 7.47618 24.7638C7.4984 24.7742 7.52109 24.7837 7.54331 24.7941C8.53084 25.2531 9.58502 25.5901 10.6874 25.7892C10.7163 25.7944 10.7451 25.7996 10.7744 25.8048C11.1167 25.8639 11.4627 25.9111 11.813 25.9428C11.8555 25.9466 11.8981 25.9489 11.9411 25.9527C12.29 25.9816 12.6426 26 13 26C13.3541 26 13.7034 25.9816 14.0504 25.9537C14.0944 25.9499 14.1383 25.9475 14.1823 25.9437C14.5297 25.9121 14.8729 25.8662 15.2119 25.8081C15.2412 25.8029 15.271 25.7977 15.3003 25.792C16.3861 25.5972 17.4252 25.2677 18.4 24.8205C18.4359 24.804 18.4723 24.7884 18.5082 24.7714C18.7999 24.6343 19.0849 24.4863 19.3643 24.3289C19.4338 24.2897 19.5028 24.25 19.5719 24.2093C19.8262 24.0595 20.0763 23.903 20.3192 23.7366C20.4067 23.677 20.4923 23.6141 20.5788 23.5517C20.7863 23.4024 20.99 23.2483 21.1881 23.0871C21.2321 23.0516 21.2793 23.0209 21.3224 22.9845L21.7549 22.6233L21.7421 22.6124C24.3563 20.2337 26 16.8055 26 13ZM0.945455 13C0.945455 6.35298 6.35298 0.945455 13 0.945455C19.647 0.945455 25.0545 6.35298 25.0545 13C25.0545 16.5819 23.4827 19.8021 20.9943 22.0116C20.8553 21.9156 20.7154 21.8296 20.5721 21.7577L16.5696 19.7567C16.2103 19.5771 15.9872 19.2159 15.9872 18.8145V17.4167C16.0798 17.3023 16.1777 17.1728 16.2788 17.0305C16.7969 16.2987 17.2125 15.4847 17.5155 14.6087C18.1144 14.3241 18.5011 13.7275 18.5011 13.0539V11.3781C18.5011 10.9682 18.3508 10.5707 18.0818 10.2582V8.05196C18.1064 7.80615 18.1934 6.422 17.1917 5.27989C16.3204 4.28527 14.9103 3.78182 13 3.78182C11.0897 3.78182 9.67956 4.28527 8.80833 5.27942C7.80662 6.42153 7.8936 7.80662 7.91818 8.05149V10.2577C7.64967 10.5702 7.49887 10.9677 7.49887 11.3776V13.0534C7.49887 13.5739 7.7324 14.0594 8.13233 14.387C8.51524 15.8869 9.30327 17.0224 9.59447 17.4072V18.7753C9.59447 19.1611 9.38411 19.5156 9.04516 19.7009L5.30731 21.7398C5.18818 21.8045 5.07 21.8802 4.95182 21.9648C2.49411 19.7562 0.945455 16.5559 0.945455 13Z" fill="white"/>
</svg>
